@startuml
title Zustandsdiagramm

[*] --> Bereit : Anwendung gestartet

Bereit --> Strahlung_aktiv : Benutzer klickt "Start"
Strahlung_aktiv --> Strahlung_beendet : Benutzer klickt "Stop"
Strahlung_aktiv --> Strahlung_beendet : Max. Dauer erreicht

Strahlung_beendet --> Bereit : System zurückgesetzt

note right of Bereit
  UI zeigt LED rot
  Fortschrittsbalken = 0
  Strahlung inaktiv
end note

note right of Strahlung_aktiv
  LED = grün
  Fortschritt wird aktualisiert
  Dauer läuft
end note

note right of Strahlung_beendet
  Nachricht anzeigen
  Logeintrag
  LED = rot
end note

Strahlung_beendet -->  [*]

@enduml
